<svg width="136" height="36" viewBox="0 0 136 36" fill="none" xmlns="http://www.w3.org/2000/svg">
<path d="M4.12011 8.09776C6.35624 8.09776 8.16899 6.28502 8.16899 4.04888C8.16899 1.81275 6.35624 0 4.12011 0C1.88397 0 0.071228 1.81275 0.071228 4.04888C0.071228 6.28502 1.88397 8.09776 4.12011 8.09776Z" fill="#C1211C"/>
<path d="M9.3278 0.841768C9.3278 0.445468 9.649 0.124268 10.0453 0.124268H16.503C16.8992 0.124268 17.2205 0.445468 17.2205 0.841768V7.29937C17.2205 7.69567 16.8992 8.01697 16.503 8.01697H10.0453C9.649 8.01697 9.3278 7.69567 9.3278 7.29937V0.841768Z" fill="#349745"/>
<path d="M0 10.1694C0 9.77307 0.32124 9.45187 0.71752 9.45187H7.1752C7.5715 9.45187 7.8927 9.77307 7.8927 10.1694V16.627C7.8927 17.0233 7.5715 17.3445 7.1752 17.3445H0.71752C0.32124 17.3445 0 17.0233 0 16.627V10.1694Z" fill="#349745"/>
<path d="M9.3278 10.1694C9.3278 9.77307 9.649 9.45187 10.0453 9.45187H16.503C16.8992 9.45187 17.2205 9.77307 17.2205 10.1694V16.627C17.2205 17.0233 16.8992 17.3445 16.503 17.3445H10.0453C9.649 17.3445 9.3278 17.0233 9.3278 16.627V10.1694Z" fill="#349745"/>
<path d="M0 19.4971C0 19.1008 0.32124 18.7796 0.71752 18.7796H7.1752C7.5715 18.7796 7.8927 19.1008 7.8927 19.4971V25.9547C7.8927 26.351 7.5715 26.6723 7.1752 26.6723H0.71752C0.32124 26.6723 0 26.351 0 25.9547V19.4971Z" fill="#349745"/>
<path d="M9.3278 19.4971C9.3278 19.1008 9.649 18.7796 10.0453 18.7796H16.503C16.8992 18.7796 17.2205 19.1008 17.2205 19.4971V25.9547C17.2205 26.351 16.8992 26.6723 16.503 26.6723H10.0453C9.649 26.6723 9.3278 26.351 9.3278 25.9547V19.4971Z" fill="#349745"/>
<path d="M0 28.8249C0 28.4286 0.32124 28.1073 0.71752 28.1073H7.1752C7.5715 28.1073 7.8927 28.4286 7.8927 28.8249V35.2825C7.8927 35.6788 7.5715 36 7.1752 36H0.71752C0.32124 36 0 35.6788 0 35.2825V28.8249Z" fill="#349745"/>
<path d="M9.3278 28.8249C9.3278 28.4286 9.649 28.1073 10.0453 28.1073H16.503C16.8992 28.1073 17.2205 28.4286 17.2205 28.8249V35.2825C17.2205 35.6788 16.8992 36 16.503 36H10.0453C9.649 36 9.3278 35.6788 9.3278 35.2825V28.8249Z" fill="#349745"/>
<path d="M18.6555 19.4971C18.6555 19.1008 18.9768 18.7796 19.3731 18.7796H25.8307C26.227 18.7796 26.5482 19.1008 26.5482 19.4971V25.9547C26.5482 26.351 26.227 26.6723 25.8307 26.6723H19.3731C18.9768 26.6723 18.6555 26.351 18.6555 25.9547V19.4971Z" fill="#349745"/>
<path d="M19.3731 0.124268H25.8307C26.227 0.124268 26.5482 0.445468 26.5482 0.841768V7.29937C26.5482 7.69567 26.227 8.01697 25.8307 8.01697H19.3731C18.9768 8.01697 18.6555 7.69567 18.6555 7.29937V0.841768C18.6555 0.445468 18.9768 0.124268 19.3731 0.124268Z" fill="#349745"/>
<path fill-rule="evenodd" clip-rule="evenodd" d="M32.5057 17V11.1818H34.8011C35.2405 11.1818 35.6155 11.2604 35.9261 11.4176C36.2386 11.5729 36.4763 11.7936 36.6392 12.0795C36.804 12.3636 36.8864 12.6979 36.8864 13.0824C36.8864 13.4687 36.803 13.8011 36.6364 14.0795C36.4697 14.3561 36.2282 14.5682 35.9119 14.7159C35.8946 14.724 35.877 14.7319 35.8593 14.7396L37.0938 17H35.7358L34.6337 14.9375H33.7358V17H32.5057ZM34.571 13.9489H33.7358V12.1875H34.5653C34.8021 12.1875 34.9981 12.2225 35.1534 12.2926C35.3106 12.3608 35.4271 12.4612 35.5028 12.5938C35.5805 12.7263 35.6193 12.8892 35.6193 13.0824C35.6193 13.2737 35.5805 13.4337 35.5028 13.5625C35.4271 13.6913 35.3116 13.7879 35.1562 13.8523C35.0009 13.9167 34.8059 13.9489 34.571 13.9489Z" fill="#E5E1E3"/>
<path d="M37.7557 17V11.1818H41.6761V12.196H38.9858V13.5824H41.4744V14.5966H38.9858V15.9858H41.6875V17H37.7557Z" fill="#E5E1E3"/>
<path d="M42.6541 17V11.1818H46.5064V12.196H43.8842V13.5824H46.2507V14.5966H43.8842V17H42.6541Z" fill="#E5E1E3"/>
<path d="M47.3338 17V11.1818H51.2543V12.196H48.5639V13.5824H51.0526V14.5966H48.5639V15.9858H51.2656V17H47.3338Z" fill="#E5E1E3"/>
<path d="M53.4624 11.1818V17H52.2322V11.1818H53.4624Z" fill="#E5E1E3"/>
<path d="M54.2528 12.196V11.1818H59.0312V12.196H57.25V17H56.0341V12.196H54.2528Z" fill="#E5E1E3"/>
<path fill-rule="evenodd" clip-rule="evenodd" d="M64.8991 14.0909C64.8991 14.7254 64.7789 15.2652 64.5384 15.7102C64.2997 16.1553 63.974 16.4953 63.5611 16.7301C63.1501 16.9631 62.688 17.0795 62.1747 17.0795C61.6577 17.0795 61.1937 16.9621 60.7827 16.7273C60.3717 16.4924 60.0469 16.1525 59.8082 15.7074C59.5696 15.2623 59.4503 14.7235 59.4503 14.0909C59.4503 13.4564 59.5696 12.9167 59.8082 12.4716C60.0469 12.0265 60.3717 11.6875 60.7827 11.4545C61.1937 11.2197 61.6577 11.1023 62.1747 11.1023C62.688 11.1023 63.1501 11.2197 63.5611 11.4545C63.974 11.6875 64.2997 12.0265 64.5384 12.4716C64.7789 12.9167 64.8991 13.4564 64.8991 14.0909ZM63.652 14.0909C63.652 13.6799 63.5904 13.3333 63.4673 13.0511C63.3461 12.7689 63.1747 12.5549 62.9531 12.4091C62.7315 12.2633 62.4721 12.1903 62.1747 12.1903C61.8774 12.1903 61.6179 12.2633 61.3963 12.4091C61.1747 12.5549 61.0024 12.7689 60.8793 13.0511C60.758 13.3333 60.6974 13.6799 60.6974 14.0909C60.6974 14.5019 60.758 14.8485 60.8793 15.1307C61.0024 15.4129 61.1747 15.6269 61.3963 15.7727C61.6179 15.9186 61.8774 15.9915 62.1747 15.9915C62.4721 15.9915 62.7315 15.9186 62.9531 15.7727C63.1747 15.6269 63.3461 15.4129 63.4673 15.1307C63.5904 14.8485 63.652 14.5019 63.652 14.0909Z" fill="#E5E1E3"/>
<path d="M61.7401 10.6193L62.3423 9.32666H63.4616L62.5952 10.6193H61.7401Z" fill="#E5E1E3"/>
<path fill-rule="evenodd" clip-rule="evenodd" d="M65.8104 11.1818H68.1058C68.5452 11.1818 68.9202 11.2604 69.2308 11.4176C69.5433 11.5729 69.781 11.7936 69.9439 12.0795C70.1087 12.3636 70.1911 12.6979 70.1911 13.0824C70.1911 13.4687 70.1077 13.8011 69.9411 14.0795C69.7744 14.3561 69.5329 14.5682 69.2166 14.7159C69.1993 14.724 69.1817 14.7319 69.164 14.7396L70.3984 17H69.0405L67.9384 14.9375H67.0405V17H65.8104V11.1818ZM67.8757 13.9489H67.0405V12.1875H67.87C68.1068 12.1875 68.3028 12.2225 68.4581 12.2926C68.6153 12.3608 68.7318 12.4612 68.8075 12.5938C68.8852 12.7263 68.924 12.8892 68.924 13.0824C68.924 13.2737 68.8852 13.4337 68.8075 13.5625C68.7318 13.6913 68.6162 13.7879 68.4609 13.8523C68.3056 13.9167 68.1106 13.9489 67.8757 13.9489Z" fill="#E5E1E3"/>
<path d="M72.2905 17H71.0604V11.1818H72.2905V17Z" fill="#E5E1E3"/>
<path fill-rule="evenodd" clip-rule="evenodd" d="M78.6491 14.0909C78.6491 14.7254 78.5289 15.2652 78.2884 15.7102C78.0497 16.1553 77.724 16.4953 77.3111 16.7301C76.9001 16.9631 76.438 17.0795 75.9247 17.0795C75.4077 17.0795 74.9437 16.9621 74.5327 16.7273C74.1217 16.4924 73.7969 16.1525 73.5582 15.7074C73.3196 15.2623 73.2003 14.7235 73.2003 14.0909C73.2003 13.4564 73.3196 12.9167 73.5582 12.4716C73.7969 12.0265 74.1217 11.6875 74.5327 11.4545C74.9437 11.2197 75.4077 11.1023 75.9247 11.1023C76.438 11.1023 76.9001 11.2197 77.3111 11.4545C77.724 11.6875 78.0497 12.0265 78.2884 12.4716C78.5289 12.9167 78.6491 13.4564 78.6491 14.0909ZM77.402 14.0909C77.402 13.6799 77.3404 13.3333 77.2173 13.0511C77.0961 12.7689 76.9247 12.5549 76.7031 12.4091C76.4815 12.2633 76.2221 12.1903 75.9247 12.1903C75.6274 12.1903 75.3679 12.2633 75.1463 12.4091C74.9247 12.5549 74.7524 12.7689 74.6293 13.0511C74.508 13.3333 74.4474 13.6799 74.4474 14.0909C74.4474 14.5019 74.508 14.8485 74.6293 15.1307C74.7524 15.4129 74.9247 15.6269 75.1463 15.7727C75.3679 15.9186 75.6274 15.9915 75.9247 15.9915C76.2221 15.9915 76.4815 15.9186 76.7031 15.7727C76.9247 15.6269 77.0961 15.4129 77.2173 15.1307C77.3404 14.8485 77.402 14.5019 77.402 14.0909Z" fill="#E5E1E3"/>
<path d="M34.0348 20.7273V28H32.7173V20.7273H34.0348Z" fill="#E5E1E3"/>
<path d="M41.638 20.7273V28H40.4662L37.0393 23.0462H36.9789V28H35.6615V20.7273H36.8404L40.2637 25.6847H40.3277V20.7273H41.638Z" fill="#E5E1E3"/>
<path d="M47.226 22.7266C47.1929 22.4164 47.0532 22.175 46.807 22.0021C46.5631 21.8293 46.2459 21.7429 45.8553 21.7429C45.5806 21.7429 45.3451 21.7843 45.1486 21.8672C44.9521 21.95 44.8018 22.0625 44.6976 22.2045C44.5934 22.3466 44.5402 22.5088 44.5378 22.6911C44.5378 22.8426 44.5721 22.974 44.6408 23.0852C44.7118 23.1965 44.8077 23.2912 44.9284 23.3693C45.0491 23.4451 45.1829 23.509 45.3297 23.5611C45.4765 23.6132 45.6244 23.657 45.7736 23.6925L46.4554 23.8629C46.73 23.9268 46.994 24.0133 47.2473 24.1222C47.503 24.2311 47.7314 24.3684 47.9327 24.5341C48.1363 24.6998 48.2973 24.8999 48.4156 25.1342C48.534 25.3686 48.5932 25.6432 48.5932 25.9581C48.5932 26.3842 48.4843 26.7595 48.2665 27.0838C48.0487 27.4058 47.7338 27.6579 47.3219 27.8402C46.9123 28.0201 46.4163 28.1101 45.8339 28.1101C45.2681 28.1101 44.7769 28.0225 44.3602 27.8473C43.9459 27.6721 43.6216 27.4164 43.3872 27.0803C43.1552 26.7441 43.0297 26.3345 43.0108 25.8516H44.307C44.3259 26.1049 44.404 26.3156 44.5413 26.4837C44.6786 26.6518 44.8574 26.7772 45.0776 26.8601C45.3001 26.9429 45.5487 26.9844 45.8233 26.9844C46.1098 26.9844 46.3607 26.9418 46.5761 26.8565C46.7939 26.7689 46.9644 26.6482 47.0875 26.4943C47.2106 26.3381 47.2733 26.1558 47.2757 25.9474C47.2733 25.758 47.2177 25.6018 47.1088 25.4787C46.9999 25.3532 46.8472 25.2491 46.6507 25.1662C46.4566 25.081 46.2293 25.0052 45.9689 24.9389L45.1415 24.7259C44.5425 24.572 44.069 24.3388 43.721 24.0263C43.3754 23.7114 43.2026 23.2936 43.2026 22.7727C43.2026 22.3442 43.3186 21.969 43.5506 21.647C43.7849 21.325 44.1034 21.0753 44.5058 20.8977C44.9083 20.7178 45.364 20.6278 45.873 20.6278C46.3891 20.6278 46.8413 20.7178 47.2295 20.8977C47.6202 21.0753 47.9268 21.3227 48.1493 21.6399C48.3718 21.9548 48.4866 22.317 48.4937 22.7266H47.226Z" fill="#E5E1E3"/>
<path d="M49.6481 21.8317V20.7273H55.4507V21.8317H53.2028V28H51.896V21.8317H49.6481Z" fill="#E5E1E3"/>
<path d="M58.0868 20.7273V28H56.7693V20.7273H58.0868Z" fill="#E5E1E3"/>
<path d="M59.3938 21.8317V20.7273H65.1964V21.8317H62.9485V28H61.6417V21.8317H59.3938Z" fill="#E5E1E3"/>
<path d="M71.0995 20.7273H72.417V25.4787C72.417 25.9995 72.2939 26.4576 72.0477 26.853C71.8038 27.2483 71.4605 27.5573 71.0178 27.7798C70.5751 28 70.0578 28.1101 69.466 28.1101C68.8718 28.1101 68.3533 28 67.9106 27.7798C67.4679 27.5573 67.1246 27.2483 66.8808 26.853C66.6369 26.4576 66.515 25.9995 66.515 25.4787V20.7273H67.8325V25.3686C67.8325 25.6716 67.8987 25.9415 68.0313 26.1783C68.1663 26.415 68.3557 26.6009 68.5995 26.7358C68.8433 26.8684 69.1322 26.9347 69.466 26.9347C69.7998 26.9347 70.0886 26.8684 70.3325 26.7358C70.5787 26.6009 70.7681 26.415 70.9006 26.1783C71.0332 25.9415 71.0995 25.6716 71.0995 25.3686V20.7273Z" fill="#E5E1E3"/>
<path d="M73.7294 21.8317V20.7273H79.5319V21.8317H77.2841V28H75.9772V21.8317H73.7294Z" fill="#E5E1E3"/>
<path fill-rule="evenodd" clip-rule="evenodd" d="M87.0268 24.3636C87.0268 25.1473 86.8801 25.8184 86.5865 26.3771C86.2953 26.9335 85.8976 27.3596 85.3933 27.6555C84.8914 27.9515 84.3221 28.0994 83.6852 28.0994C83.0484 28.0994 82.4778 27.9515 81.9736 27.6555C81.4717 27.3572 81.074 26.9299 80.7804 26.3736C80.4892 25.8149 80.3436 25.1449 80.3436 24.3636C80.3436 23.58 80.4892 22.91 80.7804 22.3537C81.074 21.795 81.4717 21.3677 81.9736 21.0717C82.4778 20.7758 83.0484 20.6278 83.6852 20.6278C84.3221 20.6278 84.8914 20.7758 85.3933 21.0717C85.8976 21.3677 86.2953 21.795 86.5865 22.3537C86.8801 22.91 87.0268 23.58 87.0268 24.3636ZM85.7023 24.3636C85.7023 23.812 85.6159 23.3468 85.443 22.968C85.2726 22.5869 85.0358 22.2992 84.7328 22.1051C84.4298 21.9086 84.0806 21.8104 83.6852 21.8104C83.2899 21.8104 82.9407 21.9086 82.6376 22.1051C82.3346 22.2992 82.0967 22.5869 81.9239 22.968C81.7534 23.3468 81.6682 23.812 81.6682 24.3636C81.6682 24.9152 81.7534 25.3816 81.9239 25.7628C82.0967 26.1416 82.3346 26.4292 82.6376 26.6257C82.9407 26.8198 83.2899 26.9169 83.6852 26.9169C84.0806 26.9169 84.4298 26.8198 84.7328 26.6257C85.0358 26.4292 85.2726 26.1416 85.443 25.7628C85.6159 25.3816 85.7023 24.9152 85.7023 24.3636Z" fill="#E5E1E3"/>
<path d="M91.1529 28V20.7273H95.812V21.8317H92.47V23.8061H95.492V24.9105H92.47V28H91.1529Z" fill="#E5E1E3"/>
<path d="M97.212 28V20.7273H101.942V21.8317H98.53V23.8061H101.697V24.9105H98.53V26.8956H101.971V28H97.212Z" fill="#E5E1E3"/>
<path fill-rule="evenodd" clip-rule="evenodd" d="M105.951 28H103.486V20.7273H106.001C106.723 20.7273 107.343 20.8729 107.861 21.1641C108.382 21.4529 108.782 21.8684 109.062 22.4105C109.341 22.9527 109.481 23.6013 109.481 24.3565C109.481 25.1141 109.34 25.7652 109.058 26.3097C108.779 26.8542 108.375 27.272 107.847 27.5632C107.322 27.8544 106.69 28 105.951 28ZM104.804 26.8601H105.887C106.394 26.8601 106.816 26.7678 107.155 26.5831C107.493 26.3961 107.748 26.1179 107.918 25.7486C108.089 25.3769 108.174 24.9129 108.174 24.3565C108.174 23.8002 108.089 23.3385 107.918 22.9716C107.748 22.6023 107.496 22.3265 107.162 22.1442C106.83 21.9595 106.419 21.8672 105.926 21.8672H104.804V26.8601Z" fill="#E5E1E3"/>
<path d="M110.933 28V20.7273H115.663V21.8317H112.25V23.8061H115.418V24.9105H112.25V26.8956H115.691V28H110.933Z" fill="#E5E1E3"/>
<path fill-rule="evenodd" clip-rule="evenodd" d="M117.207 28V20.7273H119.934C120.493 20.7273 120.962 20.8243 121.34 21.0185C121.721 21.2126 122.009 21.4848 122.203 21.8352C122.4 22.1832 122.498 22.5893 122.498 23.0533C122.498 23.5196 122.399 23.9245 122.2 24.2678C122.003 24.6087 121.713 24.8726 121.33 25.0597C121.285 25.0813 121.239 25.1017 121.191 25.1208L122.764 28H121.294L119.865 25.3366H118.524V28H117.207ZM119.739 24.2429H118.524V21.8281H119.732C120.061 21.8281 120.329 21.8767 120.538 21.9737C120.746 22.0684 120.901 22.2081 121.003 22.3928C121.105 22.575 121.156 22.7952 121.156 23.0533C121.156 23.3113 121.105 23.5291 121.003 23.7067C120.904 23.8819 120.75 24.0156 120.541 24.108C120.333 24.1979 120.065 24.2429 119.739 24.2429Z" fill="#E5E1E3"/>
<path fill-rule="evenodd" clip-rule="evenodd" d="M124.845 28H123.438L125.999 20.7273H127.625L130.189 28H128.783L128.18 26.2067H125.446L124.845 28ZM126.84 22.2188L127.825 25.1484H125.801L126.784 22.2188H126.84Z" fill="#E5E1E3"/>
<path d="M131.347 28V20.7273H132.664V26.8956H135.868V28H131.347Z" fill="#E5E1E3"/>
<path fill-rule="evenodd" clip-rule="evenodd" d="M32.6165 30.4091V35.5H33.233V33.5114H34.3466C34.3907 33.5114 34.4339 33.5106 34.4763 33.5089L35.5497 35.5H36.2656L35.1156 33.4007C35.1876 33.3762 35.2553 33.3476 35.3185 33.315C35.5721 33.1824 35.7602 33.0001 35.8828 32.7681C36.0054 32.5361 36.0668 32.2701 36.0668 31.9702C36.0668 31.6702 36.0054 31.4026 35.8828 31.1673C35.7602 30.9319 35.5713 30.7472 35.3161 30.6129C35.0608 30.477 34.7344 30.4091 34.3366 30.4091H32.6165ZM33.233 32.9545H34.3267C34.5985 32.9545 34.8172 32.9148 34.983 32.8352C35.1503 32.7557 35.2713 32.643 35.3459 32.4972C35.4221 32.3497 35.4602 32.174 35.4602 31.9702C35.4602 31.7663 35.4221 31.5882 35.3459 31.4357C35.2696 31.2833 35.1478 31.1656 34.9805 31.0827C34.8131 30.9982 34.5919 30.956 34.3168 30.956H33.233V32.9545Z" fill="#E5E1E3"/>
<path d="M37.1545 31.6818V35.5H37.7411V31.6818H37.1545Z" fill="#E5E1E3"/>
<path d="M37.157 30.9286C37.2398 31.0065 37.3384 31.0455 37.4528 31.0455C37.5671 31.0455 37.6649 31.0065 37.7461 30.9286C37.8289 30.8507 37.8704 30.7571 37.8704 30.6477C37.8704 30.5384 37.8289 30.4447 37.7461 30.3668C37.6649 30.2889 37.5671 30.25 37.4528 30.25C37.3384 30.25 37.2398 30.2889 37.157 30.3668C37.0758 30.4447 37.0352 30.5384 37.0352 30.6477C37.0352 30.7571 37.0758 30.8507 37.157 30.9286Z" fill="#E5E1E3"/>
<path fill-rule="evenodd" clip-rule="evenodd" d="M39.5994 35.3335C39.8596 35.4975 40.162 35.5795 40.5067 35.5795C40.8514 35.5795 41.153 35.4975 41.4116 35.3335C41.6717 35.1694 41.8739 34.9399 42.0181 34.6449C42.1639 34.3499 42.2369 34.0052 42.2369 33.6108C42.2369 33.2131 42.1639 32.8659 42.0181 32.5692C41.8739 32.2726 41.6717 32.0423 41.4116 31.8782C41.153 31.7141 40.8514 31.6321 40.5067 31.6321C40.162 31.6321 39.8596 31.7141 39.5994 31.8782C39.3409 32.0423 39.1387 32.2726 38.9929 32.5692C38.8487 32.8659 38.7766 33.2131 38.7766 33.6108C38.7766 34.0052 38.8487 34.3499 38.9929 34.6449C39.1387 34.9399 39.3409 35.1694 39.5994 35.3335ZM41.153 34.8512C40.984 34.9854 40.7686 35.0526 40.5067 35.0526C40.2449 35.0526 40.0295 34.9854 39.8604 34.8512C39.6914 34.717 39.5663 34.5405 39.4851 34.3217C39.4039 34.103 39.3633 33.866 39.3633 33.6108C39.3633 33.3556 39.4039 33.1178 39.4851 32.8974C39.5663 32.677 39.6914 32.4988 39.8604 32.3629C40.0295 32.227 40.2449 32.1591 40.5067 32.1591C40.7686 32.1591 40.984 32.227 41.153 32.3629C41.3221 32.4988 41.4472 32.677 41.5284 32.8974C41.6096 33.1178 41.6502 33.3556 41.6502 33.6108C41.6502 33.866 41.6096 34.103 41.5284 34.3217C41.4472 34.5405 41.3221 34.717 41.153 34.8512Z" fill="#E5E1E3"/>
<path d="M48.7245 31.5501C48.814 31.6826 48.8861 31.8326 48.9408 32H49.5771C49.5307 31.7531 49.4462 31.5285 49.3236 31.3263C49.201 31.1225 49.0477 30.9477 48.8637 30.8018C48.6814 30.6544 48.4734 30.5408 48.2398 30.4613C48.0078 30.3801 47.7575 30.3395 47.4891 30.3395C47.1626 30.3395 46.8635 30.4 46.5917 30.521C46.3199 30.6419 46.0846 30.8159 45.8857 31.043C45.6869 31.27 45.5327 31.5451 45.4234 31.8683C45.3157 32.1897 45.2618 32.5518 45.2618 32.9545C45.2618 33.4915 45.3563 33.9555 45.5452 34.3466C45.7358 34.7377 46.0009 35.0393 46.3406 35.2514C46.682 35.4635 47.0781 35.5696 47.5288 35.5696C47.9332 35.5696 48.2911 35.4851 48.6027 35.3161C48.9159 35.1454 49.1612 34.9051 49.3385 34.5952C49.5175 34.2853 49.607 33.9207 49.607 33.5014V32.9545H47.668V33.5014H49.0101C49.0049 33.7963 48.942 34.054 48.8215 34.2745C48.6972 34.5032 48.5232 34.6805 48.2994 34.8065C48.0774 34.9308 47.8205 34.9929 47.5288 34.9929C47.214 34.9929 46.9306 34.915 46.6787 34.7592C46.4268 34.6035 46.2271 34.3739 46.0796 34.0707C45.9321 33.7674 45.8584 33.3954 45.8584 32.9545C45.8584 32.5137 45.9313 32.1417 46.0771 31.8384C46.223 31.5352 46.4193 31.3056 46.6663 31.1499C46.9132 30.9941 47.1875 30.9162 47.4891 30.9162C47.673 30.9162 47.842 30.9411 47.9962 30.9908C48.1503 31.0405 48.2878 31.1126 48.4088 31.207C48.5314 31.3015 48.6367 31.4158 48.7245 31.5501Z" fill="#E5E1E3"/>
<path d="M50.7233 31.6818V35.5H51.3099V33.0838C51.3099 32.9115 51.3513 32.7582 51.4342 32.6239C51.5187 32.488 51.6331 32.382 51.7772 32.3058C51.9231 32.2279 52.0888 32.1889 52.2744 32.1889C52.3523 32.1889 52.426 32.1947 52.4956 32.2063C52.5669 32.2163 52.6125 32.2237 52.6324 32.2287V31.6321C52.5992 31.6288 52.5503 31.6263 52.4857 31.6246C52.4211 31.623 52.3672 31.6222 52.3241 31.6222C52.0954 31.6222 51.8899 31.681 51.7076 31.7987C51.5253 31.9163 51.3994 32.0696 51.3298 32.2585H51.29V31.6818H50.7233Z" fill="#E5E1E3"/>
<path fill-rule="evenodd" clip-rule="evenodd" d="M53.9326 35.4528C54.1298 35.5439 54.3494 35.5895 54.5913 35.5895C54.8134 35.5895 55.0015 35.5563 55.1556 35.4901C55.3097 35.4238 55.4332 35.3434 55.526 35.2489C55.6188 35.1545 55.6851 35.0658 55.7249 34.983H55.7547V35.5H56.3413V32.9844C56.3413 32.6811 56.2916 32.4392 56.1922 32.2585C56.0928 32.0779 55.9676 31.9428 55.8168 31.8533C55.6677 31.7638 55.5127 31.705 55.352 31.6768C55.1929 31.647 55.052 31.6321 54.9294 31.6321C54.7372 31.6321 54.5416 31.6586 54.3428 31.7116C54.1455 31.763 53.9633 31.8542 53.7959 31.9851C53.6302 32.1143 53.4976 32.295 53.3982 32.527L53.955 32.7259C54.0196 32.5866 54.1315 32.4557 54.2906 32.3331C54.4496 32.2105 54.6692 32.1491 54.9493 32.1491C55.2194 32.1491 55.4208 32.2171 55.5533 32.353C55.6876 32.4889 55.7547 32.6795 55.7547 32.9247V32.9446C55.7547 33.0391 55.7207 33.1054 55.6528 33.1435C55.5865 33.1816 55.4804 33.2089 55.3346 33.2255C55.1904 33.2404 55.0023 33.2628 54.7703 33.2926C54.593 33.3158 54.4165 33.3473 54.2408 33.3871C54.0668 33.4252 53.9077 33.4832 53.7636 33.5611C53.6194 33.639 53.5042 33.7467 53.418 33.8842C53.3319 34.0201 53.2888 34.1974 53.2888 34.4162C53.2888 34.6648 53.3468 34.8769 53.4628 35.0526C53.5788 35.2266 53.7354 35.36 53.9326 35.4528ZM55.2675 34.9258C55.1084 35.0169 54.9128 35.0625 54.6808 35.0625C54.4472 35.0625 54.2541 35.0111 54.1016 34.9084C53.9508 34.804 53.8754 34.6499 53.8754 34.446C53.8754 34.2969 53.9152 34.1792 53.9947 34.093C54.0759 34.0052 54.182 33.9397 54.3129 33.8967C54.4455 33.8519 54.588 33.8196 54.7405 33.7997C54.7986 33.792 54.8728 33.783 54.9633 33.7726L54.9866 33.7699C55.0893 33.7566 55.1946 33.7417 55.3023 33.7251C55.4116 33.7069 55.5078 33.6862 55.5906 33.663C55.6751 33.6381 55.7298 33.6108 55.7547 33.581V34.1179C55.7547 34.277 55.7133 34.4286 55.6304 34.5728C55.5492 34.717 55.4282 34.8346 55.2675 34.9258Z" fill="#E5E1E3"/>
<path d="M58.1387 35.5V33.2031C58.1387 32.9811 58.181 32.7921 58.2655 32.6364C58.35 32.4806 58.4652 32.3621 58.611 32.2809C58.7585 32.1997 58.9259 32.1591 59.1132 32.1591C59.3849 32.1591 59.5987 32.2436 59.7545 32.4126C59.9103 32.58 59.9882 32.8137 59.9882 33.1136V35.5H60.5748V33.0739C60.5748 32.7491 60.521 32.4806 60.4132 32.2685C60.3055 32.0547 60.1547 31.8956 59.9608 31.7912C59.7669 31.6851 59.5407 31.6321 59.2822 31.6321C58.9938 31.6321 58.7585 31.6918 58.5762 31.8111C58.3939 31.9287 58.2581 32.0845 58.1686 32.2784H58.1188V31.6818H57.5521V35.5H58.1387Z" fill="#E5E1E3"/>
<path fill-rule="evenodd" clip-rule="evenodd" d="M62.3859 35.3384C62.6295 35.4992 62.9104 35.5795 63.2286 35.5795C63.4738 35.5795 63.6702 35.5389 63.8177 35.4577C63.9652 35.3749 64.0787 35.2812 64.1583 35.1768C64.2378 35.0708 64.2991 34.983 64.3422 34.9134H64.4118V35.5H64.9786V30.4091H64.3919V32.2884H64.3422C64.2991 32.2221 64.2386 32.1375 64.1608 32.0348C64.0845 31.9304 63.9735 31.8376 63.8277 31.7564C63.6835 31.6735 63.4871 31.6321 63.2385 31.6321C62.917 31.6321 62.6336 31.7125 62.3884 31.8732C62.1431 32.034 61.9517 32.2618 61.8142 32.5568C61.6766 32.8518 61.6078 33.1998 61.6078 33.6009C61.6078 34.0052 61.6766 34.3557 61.8142 34.6523C61.9517 34.9473 62.1423 35.176 62.3859 35.3384ZM63.9047 34.8686C63.7423 34.9912 63.5434 35.0526 63.3081 35.0526C63.0629 35.0526 62.8574 34.9879 62.6916 34.8587C62.5276 34.7277 62.4033 34.5521 62.3188 34.3317C62.2359 34.1096 62.1945 33.8627 62.1945 33.5909C62.1945 33.3224 62.2351 33.0805 62.3163 32.8651C62.3991 32.648 62.5226 32.4764 62.6867 32.3505C62.8524 32.2229 63.0595 32.1591 63.3081 32.1591C63.5468 32.1591 63.7473 32.2196 63.9097 32.3406C64.0721 32.4599 64.1947 32.6272 64.2776 32.8427C64.3604 33.0565 64.4019 33.3059 64.4019 33.5909C64.4019 33.8793 64.3596 34.1336 64.2751 34.354C64.1906 34.5728 64.0671 34.7443 63.9047 34.8686Z" fill="#E5E1E3"/>
<path fill-rule="evenodd" clip-rule="evenodd" d="M66.9233 35.3359C67.1901 35.4983 67.5074 35.5795 67.8753 35.5795C68.1338 35.5795 68.3667 35.5398 68.5738 35.4602C68.781 35.379 68.955 35.2663 69.0958 35.1222C69.2367 34.9763 69.337 34.8073 69.3966 34.6151L68.8299 34.456C68.7802 34.5885 68.7097 34.6996 68.6186 34.7891C68.5274 34.8769 68.4189 34.9432 68.2929 34.9879C68.1686 35.031 68.0294 35.0526 67.8753 35.0526C67.6383 35.0526 67.4304 35.0012 67.2514 34.8984C67.0724 34.794 66.9324 34.6424 66.8313 34.4435C66.7412 34.2617 66.6918 34.0438 66.6834 33.7898H69.4563V33.5412C69.4563 33.1849 69.4091 32.8849 69.3146 32.6413C69.2201 32.3977 69.0934 32.2022 68.9343 32.0547C68.7752 31.9055 68.5987 31.7978 68.4048 31.7315C68.2109 31.6652 68.0145 31.6321 67.8157 31.6321C67.471 31.6321 67.1694 31.7166 66.9108 31.8857C66.654 32.053 66.4534 32.2867 66.3093 32.5866C66.1668 32.8849 66.0955 33.2296 66.0955 33.6207C66.0955 34.0118 66.1668 34.3549 66.3093 34.6499C66.4534 34.9432 66.6581 35.1719 66.9233 35.3359ZM66.6849 33.2827C66.6961 33.1055 66.7407 32.9382 66.8189 32.7805C66.91 32.5966 67.0401 32.4474 67.2091 32.3331C67.3798 32.2171 67.582 32.1591 67.8157 32.1591C68.0278 32.1591 68.2117 32.208 68.3675 32.3058C68.5249 32.4035 68.6459 32.5369 68.7304 32.706C68.8166 32.875 68.8597 33.0672 68.8597 33.2827H66.6849Z" fill="#E5E1E3"/>
<path fill-rule="evenodd" clip-rule="evenodd" d="M73.1965 35.3384C73.4401 35.4992 73.721 35.5795 74.0392 35.5795C74.2845 35.5795 74.4808 35.5389 74.6283 35.4577C74.7758 35.3749 74.8893 35.2812 74.9689 35.1768C75.0484 35.0708 75.1098 34.983 75.1528 34.9134H75.2224V35.5H75.7892V30.4091H75.2026V32.2884H75.1528C75.1098 32.2221 75.0493 32.1375 74.9714 32.0348C74.8951 31.9304 74.7841 31.8376 74.6383 31.7564C74.4941 31.6735 74.2977 31.6321 74.0491 31.6321C73.7276 31.6321 73.4443 31.7125 73.199 31.8732C72.9537 32.034 72.7623 32.2618 72.6248 32.5568C72.4872 32.8518 72.4185 33.1998 72.4185 33.6009C72.4185 34.0052 72.4872 34.3557 72.6248 34.6523C72.7623 34.9473 72.9529 35.176 73.1965 35.3384ZM74.7153 34.8686C74.5529 34.9912 74.3541 35.0526 74.1187 35.0526C73.8735 35.0526 73.668 34.9879 73.5023 34.8587C73.3382 34.7277 73.2139 34.5521 73.1294 34.3317C73.0465 34.1096 73.0051 33.8627 73.0051 33.5909C73.0051 33.3224 73.0457 33.0805 73.1269 32.8651C73.2098 32.648 73.3332 32.4764 73.4973 32.3505C73.663 32.2229 73.8702 32.1591 74.1187 32.1591C74.3574 32.1591 74.5579 32.2196 74.7203 32.3406C74.8827 32.4599 75.0053 32.6272 75.0882 32.8427C75.1711 33.0565 75.2125 33.3059 75.2125 33.5909C75.2125 33.8793 75.1702 34.1336 75.0857 34.354C75.0012 34.5728 74.8777 34.7443 74.7153 34.8686Z" fill="#E5E1E3"/>
<path fill-rule="evenodd" clip-rule="evenodd" d="M77.7289 35.3335C77.9891 35.4975 78.2915 35.5795 78.6362 35.5795C78.9809 35.5795 79.2825 35.4975 79.5411 35.3335C79.8012 35.1694 80.0034 34.9399 80.1476 34.6449C80.2934 34.3499 80.3663 34.0052 80.3663 33.6108C80.3663 33.2131 80.2934 32.8659 80.1476 32.5692C80.0034 32.2726 79.8012 32.0423 79.5411 31.8782C79.2825 31.7141 78.9809 31.6321 78.6362 31.6321C78.2915 31.6321 77.9891 31.7141 77.7289 31.8782C77.4704 32.0423 77.2682 32.2726 77.1224 32.5692C76.9782 32.8659 76.9061 33.2131 76.9061 33.6108C76.9061 34.0052 76.9782 34.3499 77.1224 34.6449C77.2682 34.9399 77.4704 35.1694 77.7289 35.3335ZM79.2825 34.8512C79.1135 34.9854 78.8981 35.0526 78.6362 35.0526C78.3744 35.0526 78.159 34.9854 77.9899 34.8512C77.8209 34.717 77.6958 34.5405 77.6146 34.3217C77.5334 34.103 77.4928 33.866 77.4928 33.6108C77.4928 33.3556 77.5334 33.1178 77.6146 32.8974C77.6958 32.677 77.8209 32.4988 77.9899 32.3629C78.159 32.227 78.3744 32.1591 78.6362 32.1591C78.8981 32.1591 79.1135 32.227 79.2825 32.3629C79.4516 32.4988 79.5767 32.677 79.6579 32.8974C79.7391 33.1178 79.7797 33.3556 79.7797 33.6108C79.7797 33.866 79.7391 34.103 79.6579 34.3217C79.5767 34.5405 79.4516 34.717 79.2825 34.8512Z" fill="#E5E1E3"/>
<path d="M87.6271 35.5V30.4091H87.0205V34.4162H86.9708L84.1867 30.4091H83.5901V35.5H84.2066V31.5028H84.2563L87.0305 35.5H87.6271Z" fill="#E5E1E3"/>
<path fill-rule="evenodd" clip-rule="evenodd" d="M89.5649 35.3335C89.8251 35.4975 90.1275 35.5795 90.4722 35.5795C90.8169 35.5795 91.1186 35.4975 91.3771 35.3335C91.6373 35.1694 91.8394 34.9399 91.9836 34.6449C92.129 34.3499 92.202 34.0052 92.202 33.6108C92.202 33.2131 92.129 32.8659 91.9836 32.5692C91.8394 32.2726 91.6373 32.0423 91.3771 31.8782C91.1186 31.7141 90.8169 31.6321 90.4722 31.6321C90.1275 31.6321 89.8251 31.7141 89.5649 31.8782C89.3064 32.0423 89.1042 32.2726 88.9584 32.5692C88.8142 32.8659 88.7421 33.2131 88.7421 33.6108C88.7421 34.0052 88.8142 34.3499 88.9584 34.6449C89.1042 34.9399 89.3064 35.1694 89.5649 35.3335ZM91.1186 34.8512C90.9495 34.9854 90.7341 35.0526 90.4722 35.0526C90.2104 35.0526 89.995 34.9854 89.8259 34.8512C89.6569 34.717 89.5318 34.5405 89.4506 34.3217C89.3694 34.103 89.3288 33.866 89.3288 33.6108C89.3288 33.3556 89.3694 33.1178 89.4506 32.8974C89.5318 32.677 89.6569 32.4988 89.8259 32.3629C89.995 32.227 90.2104 32.1591 90.4722 32.1591C90.7341 32.1591 90.9495 32.227 91.1186 32.3629C91.2876 32.4988 91.4127 32.677 91.4939 32.8974C91.5751 33.1178 91.6157 33.3556 91.6157 33.6108C91.6157 33.866 91.5751 34.103 91.4939 34.3217C91.4127 34.5405 91.2876 34.717 91.1186 34.8512Z" fill="#E5E1E3"/>
<path d="M93.805 31.6818H93.238V35.5H93.825V33.0838C93.825 32.9115 93.866 32.7582 93.949 32.6239C94.033 32.488 94.148 32.382 94.292 32.3058C94.438 32.2279 94.603 32.1889 94.789 32.1889C94.867 32.1889 94.941 32.1947 95.01 32.2063C95.082 32.2163 95.127 32.2237 95.147 32.2287V31.6321C95.114 31.6288 95.065 31.6263 95 31.6246C94.936 31.623 94.882 31.6222 94.839 31.6222C94.61 31.6222 94.405 31.681 94.222 31.7987C94.04 31.9163 93.914 32.0696 93.844 32.2585H93.805V31.6818Z" fill="#E5E1E3"/>
<path d="M97.882 32.179V31.6818H97.067V30.767H96.48V31.6818H95.903V32.179H96.48V34.5653C96.48 34.7874 96.532 34.9714 96.634 35.1172C96.739 35.263 96.87 35.3716 97.027 35.4428C97.186 35.5141 97.349 35.5497 97.514 35.5497C97.624 35.5497 97.714 35.5414 97.785 35.5249C97.856 35.5099 97.912 35.495 97.952 35.4801L97.832 34.9531C97.808 34.9581 97.774 34.9647 97.733 34.973C97.692 34.9796 97.639 34.983 97.574 34.983C97.488 34.983 97.406 34.9697 97.328 34.9432C97.252 34.915 97.189 34.8603 97.139 34.7791C97.091 34.6963 97.067 34.572 97.067 34.4062V32.179H97.882Z" fill="#E5E1E3"/>
<path fill-rule="evenodd" clip-rule="evenodd" d="M99.512 35.3359C99.779 35.4983 100.097 35.5795 100.464 35.5795C100.723 35.5795 100.956 35.5398 101.163 35.4602C101.37 35.379 101.544 35.2663 101.685 35.1222C101.826 34.9763 101.926 34.8073 101.986 34.6151L101.419 34.456C101.369 34.5885 101.299 34.6996 101.208 34.7891C101.117 34.8769 101.008 34.9432 100.882 34.9879C100.758 35.031 100.619 35.0526 100.464 35.0526C100.227 35.0526 100.019 35.0012 99.84 34.8984C99.662 34.794 99.521 34.6424 99.42 34.4435C99.3302 34.2617 99.2808 34.0438 99.2723 33.7898H102.045V33.5412C102.045 33.1849 101.998 32.8849 101.904 32.6413C101.809 32.3977 101.682 32.2022 101.523 32.0547C101.364 31.9055 101.188 31.7978 100.994 31.7315C100.8 31.6652 100.604 31.6321 100.405 31.6321C100.06 31.6321 99.758 31.7166 99.5 31.8857C99.243 32.053 99.043 32.2867 98.898 32.5866C98.756 32.8849 98.685 33.2296 98.685 33.6207C98.685 34.0118 98.756 34.3549 98.898 34.6499C99.043 34.9432 99.247 35.1719 99.512 35.3359ZM99.2738 33.2827C99.2851 33.1055 99.33 32.9382 99.408 32.7805C99.499 32.5966 99.629 32.4474 99.798 32.3331C99.969 32.2171 100.171 32.1591 100.405 32.1591C100.617 32.1591 100.801 32.208 100.957 32.3058C101.114 32.4035 101.235 32.5369 101.32 32.706C101.406 32.875 101.449 33.0672 101.449 33.2827H99.2738Z" fill="#E5E1E3"/>
</svg>
