<svg width="207" height="207" viewBox="0 0 207 207" fill="none" xmlns="http://www.w3.org/2000/svg">
<path d="M91.8399 8.4024L2.74166 186.599C-0.582395 193.487 2.29617 201.763 9.16701 205.087C11.0175 205.978 13.0222 206.458 15.0783 206.475H193.275C200.917 206.406 207.068 200.152 206.999 192.51C206.978 190.462 206.504 188.443 205.612 186.599L116.513 8.4024C115.36 6.12021 113.596 4.20263 111.418 2.86294C109.241 1.52325 106.734 0.813965 104.177 0.813965C101.62 0.813965 99.1127 1.52325 96.9348 2.86294C94.7568 4.20263 92.9931 6.12021 91.8399 8.4024Z" fill="#FF576B"/>
<path d="M85.6714 20.9104L2.05614 187.798C-1.07943 194.258 1.62778 202.037 8.08741 205.173C9.7837 205.995 11.6513 206.44 13.5361 206.475H180.595C182.294 206.459 183.973 206.109 185.537 205.444C187.1 204.78 188.518 203.813 189.708 202.601C190.898 201.389 191.838 199.954 192.473 198.378C193.109 196.803 193.428 195.117 193.412 193.418C193.392 191.469 192.936 189.548 192.075 187.798L108.631 20.9104C107.162 17.8674 104.545 15.532 101.354 14.4172C98.1643 13.3024 94.6621 13.4994 91.617 14.9648C89.0233 16.2221 86.9288 18.3167 85.6714 20.9104Z" fill="#FF7686"/>
<path d="M104.177 52.2662C112.058 52.2662 118.398 58.6059 117.884 65.9736L112.058 148.218C111.407 152.57 107.364 155.586 103.011 154.935C101.319 154.686 99.7514 153.898 98.5416 152.688C97.3318 151.478 96.5439 149.911 96.2948 148.218L90.4691 65.9736C89.9551 58.6059 96.2948 52.2662 104.177 52.2662Z" fill="white"/>
<path d="M104.177 161.926C109.848 161.926 114.457 166.535 114.457 172.206C114.457 177.878 109.848 182.487 104.177 182.487C98.5051 182.487 93.8959 177.878 93.8959 172.206C93.8959 166.535 98.5051 161.926 104.177 161.926Z" fill="white"/>
<path d="M104.177 52.2662C112.058 52.2662 118.398 58.6059 117.884 65.9736L112.058 148.218C111.407 152.57 107.364 155.586 103.011 154.935C101.319 154.686 99.7514 153.898 98.5416 152.688C97.3318 151.478 96.5439 149.911 96.2948 148.218L90.4691 65.9736C89.9551 58.6059 96.2948 52.2662 104.177 52.2662Z" fill="url(#paint0_linear_154_468)"/>
<path d="M104.177 182.487C109.854 182.487 114.457 177.884 114.457 172.206C114.457 166.528 109.854 161.926 104.177 161.926C98.4987 161.926 93.8959 166.528 93.8959 172.206C93.8959 177.884 98.4987 182.487 104.177 182.487Z" fill="url(#paint1_linear_154_468)"/>
<path d="M85.6715 33.4185C83.6154 35.9886 49.0042 103.669 49.0042 103.669C49.0042 103.669 45.92 108.809 50.2036 111.722C54.1445 114.464 57.7427 111.208 59.2847 108.638C60.8268 106.068 92.1826 45.4125 93.382 42.4996C94.41 39.2955 93.6904 35.8001 91.4972 33.2471C89.2697 31.191 87.0423 31.5337 85.6715 33.4185Z" fill="#FFAFB9"/>
<path d="M47.6334 128.702C50.7562 128.702 53.2878 126.171 53.2878 123.048C53.2878 119.925 50.7562 117.394 47.6334 117.394C44.5107 117.394 41.9791 119.925 41.9791 123.048C41.9791 126.171 44.5107 128.702 47.6334 128.702Z" fill="#FFAFB9"/>
<defs>
<linearGradient id="paint0_linear_154_468" x1="103.875" y1="-5.18731" x2="103.875" y2="264.664" gradientUnits="userSpaceOnUse">
<stop stop-color="white"/>
<stop offset="1" stop-color="white"/>
</linearGradient>
<linearGradient id="paint1_linear_154_468" x1="103.875" y1="-1057.82" x2="103.875" y2="290.796" gradientUnits="userSpaceOnUse">
<stop stop-color="white"/>
<stop offset="1" stop-color="white"/>
</linearGradient>
</defs>
</svg>
