<svg width="162" height="25" viewBox="0 0 162 25" fill="none" xmlns="http://www.w3.org/2000/svg">
<path d="M121.457 13.2936C107.441 11.8427 45.453 18.0785 32.5052 24.5613C32.5052 24.87 32.6512 24.8884 32.8289 24.87C34.3179 24.7157 59.8698 20.0365 78.3728 18.449C84.368 17.9346 90.9124 17.5458 97.0824 16.8129C103.253 16.0799 121.457 13.2936 121.457 13.2936Z" fill="#2ED2BA"/>
<path d="M161.951 4.06333C161.951 4.06333 162.08 4.12509 161.919 4.4338C161.832 4.47518 161.498 4.68074 160.656 5.05118C159.426 5.79207 110.401 4.13061 82.063 6.96515L0.394595 14.3124C-0.360547 14.3728 0.200378 13.7876 0.200378 13.7876C10.6849 10.6248 21.4348 7.2739 49.9524 4.95866C69.5036 2.79872 105.89 0.722879 113.332 0.883784C124.435 0.883784 148.079 2.38548 161.951 4.06333Z" fill="#2ED2BA"/>
</svg>
